# xmcd
#
# Track frame offsets:
#	150
#	15245
#	37418
#	62054
#	80519
#	99601
#	117997
#	138115
#	155777
#	170632
#	189835
#	206332
#	222739
#
# Disc length: 3286 seconds
#
# Revision: 1
# Processed by: cddbd v1.5.2PL0 Copyright (c) Steve Scherf et al.
# Submitted via: audiograbber 1.83.01
#
DISCID=b80cd40d
DTITLE=Valiant Swart - Vrydagaand - Saterdagaand
DYEAR=2008
DGENRE=Rock
TTITLE0=Vrydagaand - Saterdagaand
TTITLE1=somer 86
TTITLE2=maybe in slow motion
TTITLE3=Wellington
TTITLE4=kom ons braai
TTITLE5=just a country song, baby (don't you forget)
TTITLE6=Spook en Diesel
TTITLE7=ballade van 'n kitaarslaner
TTITLE8=klein parmant
TTITLE9=Heaven Hill blues
TTITLE10=in my donker droom
TTITLE11=goud, en 'n blaar
TTITLE12=niks op die radio
EXTD=Valiant rocks! Support hom, julle bliksems!
EXTT0=
EXTT1=
EXTT2=
EXTT3=
EXTT4=
EXTT5=
EXTT6=
EXTT7=
EXTT8=
EXTT9=
EXTT10=
EXTT11=
EXTT12=
PLAYORDER=
